<?xml version="1.0" standalone="no"?>
<!DOCTYPE svg PUBLIC "-//W3C//DTD SVG 20010904//EN"
 "http://www.w3.org/TR/2001/REC-SVG-20010904/DTD/svg10.dtd">
<svg version="1.0" xmlns="http://www.w3.org/2000/svg"
 width="373.000000pt" height="391.000000pt" viewBox="0 0 373.000000 391.000000"
 preserveAspectRatio="xMidYMid meet">

<g transform="translate(0.000000,391.000000) scale(0.100000,-0.100000)"
fill="#000000" stroke="none">
<path d="M1824 3850 c-27 -11 -72 -65 -80 -95 -6 -25 -41 -35 -131 -35 -29 0
-53 -3 -52 -7 0 -5 10 -30 22 -56 l22 -48 66 55 66 55 12 -39 c12 -42 57 -86
97 -96 18 -5 23 -11 19 -23 -4 -9 -17 -44 -30 -78 l-24 -63 30 0 30 0 -5 -77
c-3 -43 -9 -149 -12 -235 l-6 -157 -28 -3 -27 -3 23 -80 c12 -44 21 -81 19
-83 -1 -2 -33 -7 -69 -13 -79 -11 -183 -56 -241 -104 l-42 -34 -49 69 c-27 38
-52 70 -56 70 -4 0 -12 -9 -18 -19 -9 -18 -29 -7 -233 140 -122 89 -223 164
-225 169 -2 4 2 11 7 15 27 16 6 33 -64 54 l-75 22 15 29 c19 37 19 93 0 130
-18 36 -9 40 81 40 65 0 65 0 62 28 -2 15 -9 33 -15 40 -7 7 -13 20 -13 28 0
22 -7 18 -76 -40 l-65 -53 -39 19 c-127 63 -253 -87 -174 -207 35 -54 136 -75
190 -41 24 16 24 16 71 -48 44 -61 48 -64 65 -49 21 19 4 29 253 -150 232
-167 219 -156 199 -178 -14 -15 -14 -19 -3 -23 8 -3 46 -15 86 -27 l72 -22
-34 -41 c-58 -73 -105 -190 -105 -266 0 -20 -3 -39 -6 -42 -3 -3 -39 7 -80 23
-41 16 -79 29 -85 29 -5 0 -9 -12 -9 -26 l0 -27 -227 7 c-126 4 -261 9 -300
12 -69 6 -73 8 -73 30 0 29 -2 29 -82 4 -34 -11 -66 -20 -71 -20 -4 0 -14 18
-23 40 -37 92 -151 118 -222 52 -59 -55 -60 -148 -3 -205 25 -26 40 -31 89
-35 55 -4 61 -2 95 27 20 18 41 48 47 66 6 19 13 35 16 35 2 0 33 -11 70 -25
81 -30 84 -31 84 -4 0 22 0 22 207 15 345 -11 393 -15 393 -37 0 -24 12 -24
95 2 37 11 70 18 73 15 3 -4 9 -34 13 -68 9 -79 44 -166 91 -229 21 -27 38
-51 38 -53 0 -2 -33 -19 -74 -37 -73 -33 -74 -33 -58 -57 15 -23 14 -25 -49
-87 -35 -35 -248 -237 -474 -449 l-409 -386 -22 21 -23 21 -27 -53 c-49 -98
-52 -101 -84 -84 -64 33 -153 7 -185 -54 -21 -41 -19 -109 4 -147 37 -60 127
-81 189 -44 33 20 34 20 60 2 15 -11 46 -31 70 -46 43 -27 44 -27 49 -7 3 12
8 21 12 21 4 0 7 16 7 36 l0 37 -77 -6 -77 -5 14 34 c19 45 18 73 -6 119 -11
21 -19 39 -17 40 36 14 147 71 147 75 0 3 -6 12 -12 18 -10 10 8 33 92 111 58
54 272 256 475 448 335 318 372 349 387 336 15 -13 18 -12 31 9 9 12 26 44 38
71 13 26 26 47 30 47 3 0 24 -14 45 -31 59 -48 152 -88 236 -101 l75 -12 -23
-76 c-13 -41 -24 -76 -24 -77 0 -1 12 -3 28 -5 l27 -3 12 -455 c17 -676 18
-620 -12 -620 -30 0 -31 -10 -6 -75 35 -95 35 -92 -3 -105 -35 -11 -86 -61
-86 -83 0 -7 -4 -18 -9 -26 -7 -10 -24 -3 -77 33 l-69 46 -11 -27 c-6 -16 -14
-41 -18 -57 l-7 -29 90 5 c76 5 91 3 91 -9 0 -8 8 -31 17 -50 44 -93 189 -99
243 -10 48 78 9 177 -82 209 l-36 13 24 75 c29 92 29 88 2 92 l-23 3 -11 465
c-17 667 -18 610 6 610 11 0 20 4 20 8 0 8 -29 96 -45 135 -6 14 -2 17 23 17
87 0 206 43 284 103 l48 37 36 -71 c35 -70 36 -71 55 -53 20 18 29 9 501 -464
473 -472 482 -481 464 -501 -18 -19 -17 -20 56 -57 40 -20 74 -38 76 -39 2 -2
-4 -17 -12 -34 -36 -68 -11 -153 55 -191 122 -68 257 66 189 187 -23 43 -65
73 -99 73 -26 0 -26 8 -1 90 11 36 20 70 20 76 0 14 -54 26 -58 13 -2 -5 -15
-9 -28 -9 -13 0 -24 -2 -24 -4 0 -3 13 -40 30 -82 16 -43 29 -78 27 -79 -1 0
-15 -5 -32 -11 -16 -7 -37 -14 -45 -18 -12 -5 -25 13 -53 70 -35 71 -39 75
-55 60 -17 -14 -51 18 -500 467 -448 448 -481 484 -466 499 16 15 12 19 -55
52 l-71 36 36 47 c19 25 44 62 54 83 24 47 50 148 50 194 0 20 2 36 4 36 3 0
39 -13 80 -29 l76 -29 0 25 0 26 108 -7 c59 -3 196 -9 305 -12 197 -7 197 -7
197 -30 l0 -23 64 19 c35 10 73 21 84 24 16 6 21 1 26 -28 8 -43 55 -92 96
-101 16 -4 30 -7 30 -8 0 -1 -9 -34 -20 -72 -26 -91 -26 -98 5 -93 13 3 27 0
30 -6 3 -8 7 -7 11 2 3 6 14 12 25 12 10 0 19 2 19 4 0 3 -13 38 -29 79 l-29
75 34 6 c97 19 138 161 66 228 -37 35 -65 48 -102 48 -56 0 -124 -51 -135
-101 -4 -16 -8 -29 -10 -29 -2 0 -40 13 -84 30 l-81 29 0 -28 0 -29 -122 5
c-68 2 -204 8 -303 11 l-180 7 3 28 c2 15 2 27 0 27 -2 0 -41 -11 -86 -24
l-82 -24 0 32 c0 78 -53 215 -111 286 -16 19 -25 37 -21 41 4 3 37 17 75 29
65 23 77 32 57 45 -5 3 -10 10 -10 14 0 7 343 284 377 304 8 5 20 3 29 -4 10
-8 18 -9 22 -2 4 5 25 37 46 70 l40 61 27 -20 c34 -25 107 -26 149 -2 31 19
70 85 70 120 0 10 -9 38 -20 62 -15 33 -29 47 -62 62 -24 11 -52 20 -62 20
-35 0 -101 -39 -120 -70 -22 -38 -23 -112 -3 -144 15 -23 15 -23 -64 -51 -43
-15 -79 -30 -79 -33 0 -3 8 -14 17 -24 10 -11 13 -22 7 -27 -7 -7 -317 -252
-372 -294 -8 -7 -18 -5 -30 7 -10 9 -21 16 -24 16 -3 0 -24 -29 -47 -65 l-40
-65 -66 45 c-66 45 -157 78 -248 90 -54 7 -53 2 -12 102 25 63 24 73 -6 73
-18 0 -20 5 -15 38 3 20 8 126 12 235 6 195 7 198 28 195 25 -3 24 4 -4 100
-16 54 -16 62 -3 62 8 0 30 7 49 16 98 47 98 201 0 248 -37 17 -88 20 -122 6z
m111 -14 c97 -41 97 -191 0 -232 -44 -18 -69 -18 -109 1 -89 42 -91 185 -4
228 41 20 69 21 113 3z m-1204 -483 c104 -61 56 -233 -64 -233 -123 0 -179
146 -86 224 37 31 105 35 150 9z m2299 2 c81 -42 80 -178 -1 -221 -114 -59
-233 62 -174 176 29 56 113 77 175 45z m-1045 -610 c205 -54 347 -230 362
-450 26 -390 -367 -650 -726 -480 -244 116 -344 433 -216 684 56 112 180 211
306 245 72 19 201 20 274 1z m-1639 -359 c29 -29 34 -41 34 -80 0 -58 -21
-101 -60 -121 -87 -45 -190 15 -190 110 0 78 49 124 134 125 42 0 52 -4 82
-34z m3170 -52 c33 -22 57 -80 51 -121 -8 -50 -33 -82 -75 -100 -97 -40 -194
36 -177 138 8 43 52 95 88 102 33 7 87 -2 113 -19z m-3272 -1549 c90 -43 91
-187 2 -229 -42 -20 -67 -20 -111 -2 -68 29 -95 118 -55 184 34 56 104 75 164
47z m3319 -69 c67 -28 94 -125 51 -183 -30 -41 -82 -65 -123 -58 -121 22 -151
172 -48 235 38 23 75 25 120 6z m-1612 -413 c104 -61 56 -233 -64 -233 -123 0
-179 146 -86 224 37 31 105 35 150 9z"/>
<path d="M1627 2324 c-18 -18 -5 -46 28 -60 47 -19 46 -38 -1 -31 -25 4 -34 2
-31 -6 2 -7 21 -12 43 -12 35 0 39 3 42 27 3 22 -2 28 -32 38 -47 15 -47 34 0
27 25 -4 34 -2 31 6 -4 13 -69 22 -80 11z"/>
<path d="M1730 2279 c-17 -31 2 -69 34 -69 14 0 28 5 32 12 5 8 0 9 -14 6 -12
-4 -25 -2 -28 3 -3 5 7 9 21 9 23 0 26 4 23 28 -4 36 -51 44 -68 11z m50 -10
c0 -5 -7 -9 -15 -9 -15 0 -20 12 -9 23 8 8 24 -1 24 -14z"/>
<path d="M1820 2255 c0 -25 5 -45 10 -45 6 0 10 16 10 35 0 45 24 47 36 3 12
-39 31 -47 43 -16 19 52 22 68 12 68 -6 0 -13 -11 -17 -25 -3 -14 -10 -25 -14
-25 -4 0 -11 11 -14 25 -5 20 -13 25 -36 25 -29 0 -30 -2 -30 -45z"/>
<path d="M1950 2279 c-17 -31 2 -69 34 -69 14 0 28 5 32 12 5 8 0 9 -14 6 -12
-4 -25 -2 -28 3 -3 5 7 9 21 9 23 0 26 4 23 28 -4 36 -51 44 -68 11z m50 -10
c0 -5 -7 -9 -15 -9 -15 0 -20 12 -9 23 8 8 24 -1 24 -14z"/>
<path d="M2040 2255 c0 -25 5 -45 10 -45 6 0 10 16 10 35 0 19 5 35 10 35 6 0
10 5 10 10 0 6 -9 10 -20 10 -17 0 -20 -7 -20 -45z"/>
<path d="M1548 3643 c7 -3 16 -2 19 1 4 3 -2 6 -13 5 -11 0 -14 -3 -6 -6z"/>
<path d="M1510 3629 c0 -5 5 -7 10 -4 6 3 10 8 10 11 0 2 -4 4 -10 4 -5 0 -10
-5 -10 -11z"/>
<path d="M1475 3620 c-3 -5 -1 -10 4 -10 6 0 11 5 11 10 0 6 -2 10 -4 10 -3 0
-8 -4 -11 -10z"/>
<path d="M1438 3603 c7 -3 16 -2 19 1 4 3 -2 6 -13 5 -11 0 -14 -3 -6 -6z"/>
<path d="M1400 3589 c0 -5 5 -7 10 -4 6 3 10 8 10 11 0 2 -4 4 -10 4 -5 0 -10
-5 -10 -11z"/>
<path d="M1320 3560 c0 -5 5 -10 10 -10 6 0 10 5 10 10 0 6 -4 10 -10 10 -5 0
-10 -4 -10 -10z"/>
<path d="M1250 3529 c0 -5 5 -7 10 -4 6 3 10 8 10 11 0 2 -4 4 -10 4 -5 0 -10
-5 -10 -11z"/>
<path d="M1215 3520 c-3 -5 -1 -10 4 -10 6 0 11 5 11 10 0 6 -2 10 -4 10 -3 0
-8 -4 -11 -10z"/>
<path d="M1170 3499 c0 -5 5 -7 10 -4 6 3 10 8 10 11 0 2 -4 4 -10 4 -5 0 -10
-5 -10 -11z"/>
<path d="M1135 3490 c-3 -5 -1 -10 4 -10 6 0 11 5 11 10 0 6 -2 10 -4 10 -3 0
-8 -4 -11 -10z"/>
<path d="M1060 3460 c0 -5 5 -10 10 -10 6 0 10 5 10 10 0 6 -4 10 -10 10 -5 0
-10 -4 -10 -10z"/>
<path d="M985 3430 c-3 -5 -2 -10 4 -10 5 0 13 5 16 10 3 6 2 10 -4 10 -5 0
-13 -4 -16 -10z"/>
<path d="M3440 1880 c0 -5 5 -10 10 -10 6 0 10 5 10 10 0 6 -4 10 -10 10 -5 0
-10 -4 -10 -10z"/>
<path d="M3450 1720 c0 -5 5 -10 10 -10 6 0 10 5 10 10 0 6 -4 10 -10 10 -5 0
-10 -4 -10 -10z"/>
<path d="M3450 1680 c0 -5 5 -10 10 -10 6 0 10 5 10 10 0 6 -4 10 -10 10 -5 0
-10 -4 -10 -10z"/>
<path d="M2741 1616 c-19 -22 -10 -87 14 -100 11 -6 24 -17 28 -23 4 -7 18
-13 29 -13 20 0 21 1 4 13 -16 12 -16 14 3 31 26 24 27 67 3 89 -23 21 -65 22
-81 3z m73 -22 c16 -42 -12 -81 -45 -64 -19 10 -27 59 -12 73 12 13 51 7 57
-9z"/>
<path d="M3510 1570 l0 -60 33 0 c40 0 67 25 67 62 0 33 -29 58 -68 58 l-32 0
0 -60z m54 40 c20 -7 26 -16 26 -40 0 -24 -6 -33 -26 -40 -14 -6 -27 -10 -30
-10 -2 0 -4 23 -4 50 0 28 2 50 4 50 3 0 16 -4 30 -10z"/>
<path d="M3460 1560 c0 -5 5 -10 11 -10 5 0 7 5 4 10 -3 6 -8 10 -11 10 -2 0
-4 -4 -4 -10z"/>
<path d="M3460 1520 c0 -5 5 -10 10 -10 6 0 10 5 10 10 0 6 -4 10 -10 10 -5 0
-10 -4 -10 -10z"/>
<path d="M3460 1480 c0 -5 5 -10 10 -10 6 0 10 5 10 10 0 6 -4 10 -10 10 -5 0
-10 -4 -10 -10z"/>
<path d="M661 1436 c-19 -22 -10 -87 14 -100 11 -6 24 -17 28 -23 4 -7 18 -13
29 -13 20 0 21 1 4 13 -16 12 -16 14 3 31 26 24 27 67 3 89 -23 21 -65 22 -81
3z m73 -22 c16 -42 -12 -81 -45 -64 -19 10 -27 59 -12 73 12 13 51 7 57 -9z"/>
<path d="M3470 1360 c0 -5 5 -10 11 -10 5 0 7 5 4 10 -3 6 -8 10 -11 10 -2 0
-4 -4 -4 -10z"/>
<path d="M2520 1300 c0 -33 4 -60 10 -60 6 0 10 11 10 25 0 15 6 25 14 25 7 0
21 -11 30 -25 9 -14 21 -25 26 -25 6 0 4 10 -4 23 -13 19 -13 25 -1 41 23 31
2 56 -45 56 l-40 0 0 -60z m60 40 c25 -14 15 -40 -16 -40 -19 0 -24 5 -24 25
0 27 10 31 40 15z"/>
<path d="M3470 1320 c0 -5 5 -10 10 -10 6 0 10 5 10 10 0 6 -4 10 -10 10 -5 0
-10 -4 -10 -10z"/>
<path d="M3470 1280 c0 -5 5 -10 10 -10 6 0 10 5 10 10 0 6 -4 10 -10 10 -5 0
-10 -4 -10 -10z"/>
<path d="M880 1200 c0 -33 4 -60 10 -60 6 0 10 11 10 25 0 15 6 25 14 25 7 0
21 -11 30 -25 9 -14 21 -25 26 -25 6 0 4 10 -4 23 -13 19 -13 25 -1 41 23 31
2 56 -45 56 l-40 0 0 -60z m60 40 c25 -14 15 -40 -16 -40 -19 0 -24 5 -24 25
0 27 10 31 40 15z"/>
<path d="M3480 1160 c0 -5 5 -10 11 -10 5 0 7 5 4 10 -3 6 -8 10 -11 10 -2 0
-4 -4 -4 -10z"/>
<path d="M3480 1120 c0 -5 5 -10 10 -10 6 0 10 5 10 10 0 6 -4 10 -10 10 -5 0
-10 -4 -10 -10z"/>
<path d="M3480 1080 c0 -5 5 -10 10 -10 6 0 10 5 10 10 0 6 -4 10 -10 10 -5 0
-10 -4 -10 -10z"/>
<path d="M3490 960 c0 -5 5 -10 11 -10 5 0 7 5 4 10 -3 6 -8 10 -11 10 -2 0
-4 -4 -4 -10z"/>
<path d="M480 520 c0 -5 5 -10 10 -10 6 0 10 5 10 10 0 6 -4 10 -10 10 -5 0
-10 -4 -10 -10z"/>
<path d="M520 510 c0 -5 5 -10 10 -10 6 0 10 5 10 10 0 6 -4 10 -10 10 -5 0
-10 -4 -10 -10z"/>
<path d="M560 500 c0 -5 5 -10 10 -10 6 0 10 5 10 10 0 6 -4 10 -10 10 -5 0
-10 -4 -10 -10z"/>
<path d="M600 490 c0 -5 5 -10 10 -10 6 0 10 5 10 10 0 6 -4 10 -10 10 -5 0
-10 -4 -10 -10z"/>
<path d="M635 480 c3 -5 11 -10 16 -10 6 0 7 5 4 10 -3 6 -11 10 -16 10 -6 0
-7 -4 -4 -10z"/>
<path d="M675 470 c3 -5 8 -10 11 -10 2 0 4 5 4 10 0 6 -5 10 -11 10 -5 0 -7
-4 -4 -10z"/>
<path d="M715 460 c3 -5 8 -10 11 -10 2 0 4 5 4 10 0 6 -5 10 -11 10 -5 0 -7
-4 -4 -10z"/>
<path d="M750 450 c0 -5 5 -10 10 -10 6 0 10 5 10 10 0 6 -4 10 -10 10 -5 0
-10 -4 -10 -10z"/>
<path d="M790 440 c0 -5 5 -10 10 -10 6 0 10 5 10 10 0 6 -4 10 -10 10 -5 0
-10 -4 -10 -10z"/>
<path d="M830 430 c0 -5 5 -10 10 -10 6 0 10 5 10 10 0 6 -4 10 -10 10 -5 0
-10 -4 -10 -10z"/>
<path d="M870 420 c0 -5 5 -10 10 -10 6 0 10 5 10 10 0 6 -4 10 -10 10 -5 0
-10 -4 -10 -10z"/>
<path d="M910 410 c0 -5 5 -10 10 -10 6 0 10 5 10 10 0 6 -4 10 -10 10 -5 0
-10 -4 -10 -10z"/>
<path d="M950 400 c0 -5 5 -10 11 -10 5 0 7 5 4 10 -3 6 -8 10 -11 10 -2 0 -4
-4 -4 -10z"/>
<path d="M985 390 c3 -5 11 -10 16 -10 6 0 7 5 4 10 -3 6 -11 10 -16 10 -6 0
-7 -4 -4 -10z"/>
<path d="M1025 380 c3 -5 8 -10 11 -10 2 0 4 5 4 10 0 6 -5 10 -11 10 -5 0 -7
-4 -4 -10z"/>
<path d="M1060 370 c0 -5 5 -10 10 -10 6 0 10 5 10 10 0 6 -4 10 -10 10 -5 0
-10 -4 -10 -10z"/>
<path d="M1100 360 c0 -5 5 -10 10 -10 6 0 10 5 10 10 0 6 -4 10 -10 10 -5 0
-10 -4 -10 -10z"/>
<path d="M1140 350 c0 -5 5 -10 10 -10 6 0 10 5 10 10 0 6 -4 10 -10 10 -5 0
-10 -4 -10 -10z"/>
<path d="M760 290 l0 -60 33 0 c40 0 67 25 67 62 0 33 -29 58 -68 58 l-32 0 0
-60z m54 40 c20 -7 26 -16 26 -40 0 -24 -6 -33 -26 -40 -14 -6 -27 -10 -30
-10 -2 0 -4 23 -4 50 0 28 2 50 4 50 3 0 16 -4 30 -10z"/>
<path d="M1180 340 c0 -5 5 -10 10 -10 6 0 10 5 10 10 0 6 -4 10 -10 10 -5 0
-10 -4 -10 -10z"/>
<path d="M1220 330 c0 -5 5 -10 10 -10 6 0 10 5 10 10 0 6 -4 10 -10 10 -5 0
-10 -4 -10 -10z"/>
<path d="M1260 320 c0 -5 5 -10 11 -10 5 0 7 5 4 10 -3 6 -8 10 -11 10 -2 0
-4 -4 -4 -10z"/>
<path d="M1300 310 c0 -5 5 -10 11 -10 5 0 7 5 4 10 -3 6 -8 10 -11 10 -2 0
-4 -4 -4 -10z"/>
<path d="M1335 300 c3 -5 11 -10 16 -10 6 0 7 5 4 10 -3 6 -11 10 -16 10 -6 0
-7 -4 -4 -10z"/>
<path d="M1370 290 c0 -5 5 -10 10 -10 6 0 10 5 10 10 0 6 -4 10 -10 10 -5 0
-10 -4 -10 -10z"/>
<path d="M1410 280 c0 -5 5 -10 10 -10 6 0 10 5 10 10 0 6 -4 10 -10 10 -5 0
-10 -4 -10 -10z"/>
<path d="M1450 270 c0 -5 5 -10 10 -10 6 0 10 5 10 10 0 6 -4 10 -10 10 -5 0
-10 -4 -10 -10z"/>
<path d="M1490 260 c0 -5 5 -10 10 -10 6 0 10 5 10 10 0 6 -4 10 -10 10 -5 0
-10 -4 -10 -10z"/>
<path d="M1530 250 c0 -5 5 -10 10 -10 6 0 10 5 10 10 0 6 -4 10 -10 10 -5 0
-10 -4 -10 -10z"/>
</g>
</svg>
