<?xml version="1.0" standalone="no"?>
<!DOCTYPE svg PUBLIC "-//W3C//DTD SVG 20010904//EN"
 "http://www.w3.org/TR/2001/REC-SVG-20010904/DTD/svg10.dtd">
<svg version="1.0" xmlns="http://www.w3.org/2000/svg"
 width="584.000000pt" height="565.000000pt" viewBox="0 0 584.000000 565.000000"
 preserveAspectRatio="xMidYMid meet">

<g transform="translate(0.000000,565.000000) scale(0.100000,-0.100000)"
fill="#000000" stroke="none">
<path d="M3803 5582 l6 -28 -1217 -279 c-669 -153 -1224 -282 -1232 -287 -10
-6 1 -7 30 -4 25 3 38 3 30 0 -29 -12 -59 -47 -65 -75 -7 -29 -7 -29 -80 -29
-95 0 -107 -5 -95 -36 8 -21 6 -26 -13 -33 -218 -86 -449 -172 -451 -169 -2 1
-9 13 -15 26 -12 22 -12 22 -76 -32 l-64 -54 -45 16 c-41 15 -47 15 -80 0 -19
-10 -43 -29 -52 -43 -20 -30 -22 -98 -4 -120 10 -12 7 -21 -18 -52 -16 -21
-42 -49 -56 -62 -32 -30 -32 -35 -2 -49 l25 -11 -57 -131 c-38 -87 -61 -129
-69 -125 -7 3 -19 7 -27 11 -14 6 -26 -54 -26 -130 l1 -41 59 65 c52 56 58 66
42 74 -9 5 -18 10 -20 11 -1 1 22 58 52 126 47 108 57 124 77 124 22 0 24 5
31 73 3 41 8 76 11 79 3 2 15 -1 27 -7 21 -11 72 -10 115 4 16 5 29 -6 67 -59
45 -64 47 -65 61 -45 15 21 18 19 171 -91 142 -102 154 -114 141 -129 -8 -9
-15 -19 -15 -22 0 -3 36 -15 80 -28 44 -13 80 -26 80 -29 0 -3 -14 -24 -30
-45 -35 -46 -65 -122 -75 -189 -4 -26 -9 -47 -10 -47 -2 0 -40 13 -84 30 l-81
29 0 -29 0 -29 -147 5 c-82 2 -176 7 -210 10 -58 5 -63 7 -63 30 0 29 1 29
-80 4 -80 -24 -90 -25 -90 -2 -1 40 -59 82 -113 82 -31 0 -46 -7 -73 -34 -29
-29 -34 -41 -34 -79 0 -52 24 -88 71 -107 29 -13 31 -15 24 -54 -20 -130 -20
-128 8 -121 32 8 25 32 75 -273 l39 -233 -28 -6 -29 -5 43 -79 c37 -69 41 -81
29 -99 -17 -27 -18 -90 -3 -119 16 -29 69 -61 101 -61 32 0 85 32 100 61 17
30 15 85 -4 114 -17 26 -20 24 113 82 31 13 32 15 17 32 -15 16 -1 31 205 221
191 175 224 202 239 192 20 -12 29 -3 70 78 12 25 24 47 26 49 1 1 20 -11 41
-28 48 -38 116 -68 184 -81 29 -6 55 -12 57 -15 3 -2 -7 -36 -22 -75 -14 -39
-26 -73 -26 -76 0 -2 11 -4 25 -4 25 0 25 0 25 -98 0 -55 -3 -160 -7 -235 -6
-132 -7 -137 -28 -137 -12 0 -24 -2 -27 -5 -3 -3 5 -41 18 -83 13 -42 24 -79
24 -82 0 -3 -14 -10 -32 -15 -43 -13 -71 -54 -71 -104 0 -80 70 -134 144 -112
53 16 79 53 79 111 0 55 -31 97 -80 106 -16 4 -30 8 -30 10 0 1 13 39 30 83
l29 80 -22 3 c-21 3 -22 6 -19 118 1 63 5 170 8 238 6 111 8 122 25 122 24 0
24 9 -1 89 -11 36 -18 66 -17 67 1 1 29 7 62 13 124 23 232 96 292 198 17 30
32 43 47 43 21 0 24 -18 115 -637 51 -351 96 -650 98 -665 5 -25 2 -28 -21
-28 -14 0 -26 -2 -26 -5 0 -3 16 -37 35 -76 20 -38 33 -73 31 -78 -3 -4 -28
-11 -56 -14 -163 -19 -317 -175 -336 -340 -4 -32 -8 -57 -10 -57 -1 0 -39 13
-83 30 l-81 29 0 -29 0 -29 -128 5 c-70 3 -164 7 -209 10 -79 6 -83 7 -83 30
0 29 -7 29 -88 4 -76 -24 -82 -24 -82 -6 0 25 -50 75 -83 84 l-31 8 43 17 c40
16 42 19 28 35 -15 16 -4 28 140 162 191 176 189 175 209 159 8 -6 16 -10 18
-8 14 17 77 141 74 145 -5 4 -136 -51 -147 -62 -2 -2 4 -13 14 -24 16 -18 17
-22 4 -34 -8 -7 -77 -71 -154 -141 -77 -71 -150 -138 -163 -149 l-23 -21 -18
24 -18 23 -58 -103 c-71 -125 -77 -170 -31 -218 15 -16 39 -32 51 -35 23 -6
23 -6 9 -68 -8 -35 -17 -71 -20 -80 -4 -14 1 -18 24 -18 l29 0 22 -258 c12
-141 25 -281 28 -309 6 -52 5 -53 -21 -53 -14 0 -26 -4 -26 -9 0 -6 15 -43 34
-84 30 -66 32 -76 20 -98 -20 -36 -17 -97 6 -129 31 -43 81 -56 136 -35 l45
17 63 -41 c34 -23 65 -41 68 -41 3 0 8 9 11 21 4 14 11 19 24 15 10 -3 151
-40 314 -82 293 -76 296 -77 291 -101 l-5 -25 92 7 c90 7 91 7 91 -15 0 -34
37 -78 75 -89 66 -18 127 14 144 75 l8 29 81 -2 c80 -1 82 -1 82 22 0 14 7 26
18 29 9 2 136 37 281 77 251 69 265 71 277 54 13 -17 18 -15 85 29 65 43 72
46 88 32 28 -25 75 -30 113 -12 34 17 68 61 68 90 0 9 1 16 3 16 1 -1 37 -9
80 -19 78 -19 92 -16 81 13 -3 9 -2 16 3 16 13 0 549 58 601 65 38 6 42 4 42
-14 0 -28 10 -27 80 9 33 17 64 30 69 30 5 0 18 -17 28 -37 24 -50 72 -77 120
-68 44 8 93 54 93 89 l0 25 84 -6 c83 -6 84 -5 88 17 3 22 20 28 253 87 138
34 258 63 268 63 9 0 17 -7 17 -15 0 -23 15 -18 86 26 36 23 66 40 67 38 2 -2
10 -21 20 -42 32 -71 124 -87 181 -31 74 75 19 194 -90 194 -28 0 -44 -8 -70
-34 -19 -19 -34 -43 -34 -54 0 -19 -5 -20 -57 -16 -32 3 -73 7 -91 9 -32 4
-33 3 -27 -25 6 -27 4 -30 -32 -39 -113 -30 -484 -121 -492 -121 -5 0 -13 11
-18 25 l-8 25 -70 -44 -69 -44 -12 27 c-14 33 -59 71 -85 71 -24 0 -24 -1 5
93 13 42 21 78 17 78 -3 1 -14 1 -23 0 -16 -2 -18 8 -19 76 -1 43 -4 163 -8
266 l-6 188 23 6 c12 3 22 6 22 7 0 1 -11 31 -25 66 -14 35 -25 69 -25 75 0 7
23 15 55 18 60 6 165 49 191 78 9 11 23 19 29 19 7 0 27 -32 44 -71 31 -70 32
-71 52 -53 19 17 21 17 53 -17 116 -119 476 -510 476 -516 0 -3 -7 -14 -15
-23 -14 -15 -8 -20 62 -58 42 -23 78 -40 80 -39 2 2 -13 39 -33 81 -34 75 -36
77 -54 61 -19 -17 -22 -15 -88 56 -38 41 -155 166 -260 279 -181 194 -190 206
-174 223 19 21 18 22 -63 64 -64 33 -62 29 -38 61 39 53 72 130 83 195 l12 66
65 -24 c79 -30 93 -31 93 -5 0 19 6 19 168 14 226 -7 252 -10 252 -35 0 -24 3
-24 82 1 34 11 68 20 74 20 5 0 18 -17 27 -38 28 -64 96 -89 157 -57 41 21 60
53 60 102 0 119 -171 156 -216 47 -8 -19 -18 -34 -23 -34 -5 0 -39 11 -75 25
-83 31 -86 31 -86 -2 l0 -26 -137 6 c-75 4 -169 7 -210 7 l-73 0 0 30 c0 17
-1 30 -2 30 -2 0 -38 -11 -80 -24 l-77 -24 -7 47 c-10 69 -40 143 -79 194
l-35 46 53 19 c28 11 62 23 75 26 23 8 29 25 13 42 -6 5 40 48 121 112 118 94
132 102 146 88 14 -14 20 -9 60 52 25 37 46 68 47 70 1 2 18 -5 38 -14 68 -32
149 7 162 80 18 92 -69 160 -159 126 -14 -5 -26 -8 -26 -6 0 2 11 34 25 70 30
81 31 86 4 86 l-21 0 7 468 c4 257 10 471 12 475 3 5 11 6 19 3 24 -9 24 10
-1 85 -14 40 -25 74 -25 76 0 2 9 3 21 3 12 0 36 15 55 34 29 29 34 41 34 79
0 131 -172 159 -219 35 l-10 -27 -76 30 c-80 31 -95 30 -95 -2 0 -17 -7 -19
-73 -19 -41 0 -135 3 -210 7 l-137 6 0 28 0 27 -77 -24 c-43 -13 -79 -24 -79
-24 -1 0 -5 21 -9 47 -10 69 -42 148 -80 197 l-34 44 79 28 c72 25 78 29 69
47 -13 23 -23 13 126 131 109 87 121 94 136 80 16 -14 21 -10 63 56 l46 71 32
-17 c70 -36 154 6 165 83 17 131 -163 186 -214 66 l-15 -36 -56 62 c-54 62
-56 63 -71 42 -16 -20 -18 -19 -193 82 -131 75 -176 106 -172 117 3 8 8 20 10
26 3 7 -27 18 -76 28 -56 13 -83 23 -87 34 -22 73 -47 87 -176 101 -127 14
-120 16 -114 -17z m227 -17 c37 -19 50 -43 50 -93 0 -44 -33 -86 -73 -94 -61
-12 -127 37 -127 94 0 40 15 65 53 88 39 24 59 25 97 5z m-220 -32 c1 -24 18
-35 39 -24 20 11 21 9 21 -32 0 -51 24 -88 69 -107 l30 -12 -23 -62 c-13 -33
-27 -69 -31 -78 -6 -15 -2 -18 23 -18 l29 0 -4 -142 c-3 -79 -6 -149 -8 -155
-3 -7 -16 -13 -30 -13 -14 0 -25 -3 -25 -6 0 -3 10 -39 22 -80 11 -41 19 -76
16 -79 -2 -3 -28 -9 -57 -15 -68 -13 -136 -43 -184 -81 -21 -17 -40 -29 -41
-28 -1 2 -24 35 -51 73 -48 67 -49 68 -65 48 -17 -20 -19 -19 -172 91 -152
109 -155 112 -140 134 8 13 13 23 11 24 -2 0 -35 10 -74 23 -48 16 -69 27 -66
37 12 51 12 89 -3 117 -45 86 -176 78 -206 -13 -12 -36 -37 -52 -148 -96 -21
-8 -22 -10 -7 -33 18 -27 31 -12 -175 -199 l-95 -85 -21 19 -22 20 -19 -33
c-11 -18 -30 -52 -43 -74 -16 -30 -34 -46 -60 -57 -21 -8 -46 -26 -55 -41 -20
-29 -22 -100 -5 -121 12 -15 -8 -27 -95 -55 -57 -18 -58 -19 -41 -46 16 -23
15 -24 -115 -129 -127 -102 -132 -105 -146 -85 -8 11 -17 20 -21 20 -4 0 -27
-31 -52 -69 l-44 -69 -36 29 c-51 41 -125 70 -191 76 -33 3 -59 9 -59 14 0 4
13 42 29 83 29 75 29 75 7 78 -21 3 -21 6 -17 153 2 83 5 153 8 158 2 4 13 7
24 7 10 0 19 1 19 3 0 1 -9 34 -20 72 -11 38 -20 72 -20 75 0 3 16 12 36 19
64 23 91 98 59 161 -17 34 -45 51 -94 59 -25 5 274 77 1145 277 1342 309 1194
276 1194 267z m307 -87 c4 -7 26 -33 47 -56 35 -39 40 -41 51 -27 7 10 16 17
20 17 4 0 86 -45 181 -101 153 -89 172 -103 164 -119 -6 -10 -10 -21 -10 -23
0 -2 38 -12 84 -22 82 -17 84 -18 94 -53 6 -19 9 -39 6 -43 -2 -4 -28 -15 -57
-25 -87 -28 -91 -31 -73 -58 14 -23 12 -26 -117 -129 -125 -101 -133 -105
-146 -86 -7 10 -17 19 -21 19 -4 0 -27 -29 -50 -65 -23 -36 -44 -65 -46 -65
-3 0 -27 16 -55 35 -49 34 -111 56 -191 70 -21 3 -38 10 -38 14 0 5 11 39 25
75 30 81 31 86 3 86 -21 0 -21 2 -15 107 4 58 7 128 7 154 0 43 3 48 24 51
l23 3 -21 75 -21 74 40 21 c24 12 46 33 55 52 16 36 25 40 37 19z m-1059 -273
c29 -18 45 -60 38 -98 -14 -66 -85 -101 -144 -71 -38 20 -54 47 -54 92 0 85
84 125 160 77z m1860 0 c47 -29 55 -96 16 -142 -32 -38 -80 -49 -122 -27 -38
20 -54 47 -54 92 0 85 84 125 160 77z m-1978 -178 c36 -19 77 -19 111 -1 26
13 27 12 73 -51 45 -62 48 -64 66 -48 17 16 26 11 169 -92 83 -59 149 -112
147 -118 -2 -5 -7 -17 -10 -25 -5 -12 12 -20 74 -39 44 -13 80 -25 80 -27 0
-2 -16 -24 -35 -49 -36 -47 -75 -155 -75 -206 0 -16 -1 -29 -3 -29 -2 0 -40
13 -85 30 l-82 30 0 -28 0 -28 -107 3 c-60 2 -154 6 -210 9 -100 6 -103 7
-103 30 0 29 -7 29 -90 4 -79 -24 -80 -24 -80 -4 0 9 -15 31 -34 50 -29 29
-41 34 -81 34 -38 0 -52 -5 -75 -28 -60 -61 -44 -147 34 -186 36 -17 43 -18
80 -5 31 11 46 23 61 54 11 22 21 42 22 44 2 3 58 -15 141 -46 7 -3 12 3 12
16 0 20 5 21 78 21 44 0 140 -3 215 -7 134 -6 137 -7 137 -29 l0 -22 78 24
c42 13 80 24 85 24 4 0 7 -15 7 -34 0 -51 33 -148 69 -201 31 -46 31 -47 9
-42 -13 4 -50 9 -82 13 l-57 7 3 -28 3 -28 -735 -127 c-631 -108 -735 -124
-738 -111 -8 42 -11 42 -87 0 l-75 -41 0 29 c0 64 -56 200 -95 233 -8 7 -15
16 -15 20 0 4 34 20 75 35 77 28 83 33 63 53 -6 6 -10 13 -7 15 2 2 62 50 133
107 109 87 130 100 138 86 5 -9 12 -16 16 -16 4 0 27 31 51 70 l44 69 28 -14
c34 -18 79 -19 113 -3 80 36 76 171 -5 201 -16 6 -29 14 -29 17 0 3 32 18 70
34 69 29 80 39 60 51 -5 3 -10 10 -10 14 0 5 63 65 141 135 128 116 143 126
158 112 15 -14 20 -9 56 55 l39 70 18 -35 c10 -20 32 -42 48 -51z m-1423 -35
c44 -27 62 -84 39 -129 -20 -38 -73 -66 -109 -57 -15 3 -39 17 -54 30 -23 20
-28 32 -28 69 0 87 79 132 152 87z m-105 -186 c18 -9 34 -18 36 -19 1 -1 -9
-33 -23 -70 -31 -83 -31 -85 2 -85 l26 0 -6 -107 c-4 -58 -7 -128 -7 -155 0
-47 -1 -48 -31 -48 -26 0 -29 -3 -24 -21 9 -28 45 -153 45 -156 0 -2 -18 -3
-40 -3 -56 0 -141 -32 -200 -74 l-50 -36 -51 70 c-50 69 -51 70 -67 50 -17
-20 -19 -19 -157 80 -174 126 -172 124 -155 145 17 21 8 27 -77 52 -49 14 -62
21 -56 33 12 28 15 98 4 118 -9 18 -6 20 36 26 25 3 61 6 80 6 31 0 35 2 30
23 -5 21 8 27 229 111 221 84 235 88 248 71 12 -17 17 -15 76 34 l63 52 18
-40 c11 -25 30 -46 51 -57z m2720 -112 c117 -57 196 -166 220 -303 30 -169
-68 -351 -230 -427 -51 -24 -69 -27 -167 -27 -102 0 -115 2 -175 31 -248 118
-307 452 -114 648 85 86 169 117 305 113 84 -2 103 -6 161 -35z m-3581 -101
c38 -39 40 -97 5 -138 -21 -24 -32 -28 -76 -28 -44 0 -55 4 -76 28 -57 66 -11
167 76 167 33 0 48 -6 71 -29z m1860 0 c79 -79 -8 -204 -112 -161 -40 17 -59
46 -59 93 0 55 43 97 100 97 33 0 48 -6 71 -29z m308 -145 c57 -30 68 -110 22
-157 -24 -23 -38 -29 -74 -29 -38 0 -49 5 -71 31 -75 89 19 208 123 155z
m2592 -75 c72 -73 3 -192 -97 -167 -73 19 -98 106 -48 165 22 26 33 31 71 31
36 0 50 -6 74 -29z m-798 -96 c13 -6 17 -2 17 17 l0 25 108 -4 c269 -9 312
-13 312 -34 0 -24 7 -24 92 1 72 22 88 20 88 -9 0 -23 46 -70 76 -77 l22 -6
-24 -71 c-30 -87 -30 -87 1 -87 l26 0 -6 -362 c-3 -200 -8 -414 -11 -475 -6
-111 -6 -113 -30 -113 -29 0 -29 2 1 -92 22 -70 23 -79 10 -105 -18 -33 -19
-76 -4 -105 14 -25 7 -30 -78 -59 -63 -21 -76 -36 -48 -59 12 -10 -6 -29 -115
-116 -71 -57 -132 -104 -136 -104 -3 0 -14 10 -23 22 -18 21 -18 21 -54 -38
-20 -32 -41 -65 -45 -72 -8 -11 -18 -8 -52 17 -134 97 -325 104 -469 18 -58
-35 -122 -102 -143 -148 -10 -21 -20 -29 -39 -29 -22 0 -28 6 -33 33 -11 62
-256 1617 -256 1627 0 5 9 10 20 10 26 0 26 0 -10 70 l-30 60 47 -31 c65 -40
144 -62 228 -62 91 0 167 23 237 71 l55 40 34 -69 c18 -38 35 -69 38 -69 2 0
12 7 21 15 14 13 36 -6 215 -185 187 -187 199 -201 187 -221 -7 -12 -12 -22
-10 -24 2 -1 36 -19 76 -39 l72 -36 -16 -32 c-21 -41 -12 -93 22 -129 36 -38
82 -46 128 -24 108 52 72 215 -47 215 -23 0 -52 -6 -63 -14 -20 -14 -22 -11
-59 64 -37 76 -40 79 -57 63 -18 -16 -28 -8 -220 185 -193 192 -201 202 -185
220 16 17 14 20 -53 52 -39 19 -70 35 -70 37 0 2 13 22 30 44 36 50 67 130 76
197 l6 50 62 -23 c33 -13 69 -26 79 -30z m-2949 -165 c139 -43 238 -155 267
-302 10 -47 9 -74 -5 -150 -28 -150 -88 -233 -215 -295 -51 -26 -66 -28 -171
-28 -104 0 -121 3 -172 27 -201 94 -288 338 -194 543 81 179 291 266 490 205z
m1931 -130 c6 -19 8 -19 38 -4 l32 16 -29 -25 -29 -24 23 -16 23 -16 -34 -43
c-293 -373 -693 -875 -703 -882 -9 -6 -140 93 -425 319 -397 315 -411 328
-395 346 20 23 23 20 -46 47 -57 22 -46 27 28 13 40 -8 42 -7 42 15 0 13 3 24
8 25 4 0 327 56 717 124 391 67 718 124 727 124 9 1 19 -8 23 -19z m145 -40
c-13 -70 -14 -68 17 -72 l27 -3 131 -828 c72 -455 129 -830 126 -832 -2 -3
-15 -5 -28 -5 -23 0 -23 -1 -8 -32 l16 -33 -21 28 c-22 27 -22 27 -38 7 -17
-20 -29 -11 -525 384 -280 222 -509 408 -508 412 0 5 165 217 367 472 290 365
369 460 380 451 19 -16 28 -6 49 55 10 31 20 54 22 52 2 -1 -1 -27 -7 -56z
m-3440 -95 c36 -19 50 -43 50 -90 0 -96 -113 -137 -175 -63 -42 50 -28 124 29
152 39 20 60 20 96 1z m146 -120 c81 -30 84 -31 84 -3 0 21 1 21 143 15 78 -4
172 -7 210 -7 65 0 67 -1 67 -25 0 -14 1 -25 3 -25 1 0 38 11 82 25 44 14 81
25 81 25 1 0 4 -23 8 -51 9 -68 40 -148 77 -198 l29 -41 -76 -35 c-73 -33 -76
-36 -60 -53 9 -10 16 -21 16 -24 0 -5 -227 -218 -412 -386 -27 -25 -28 -25
-48 -7 -11 10 -22 16 -24 14 -2 -2 -21 -35 -41 -72 -29 -53 -41 -67 -54 -61
-31 14 -89 16 -111 4 -12 -6 -23 -10 -25 -8 -2 2 1 26 6 53 22 127 23 116 -5
109 -15 -3 -26 -3 -26 1 0 3 -18 115 -40 247 -23 133 -39 247 -36 255 3 7 12
13 21 13 21 0 20 3 -21 77 -30 53 -34 67 -23 74 8 5 19 9 25 9 16 0 51 41 63
73 6 15 13 27 16 27 2 0 34 -11 71 -25z m1578 -120 c13 -19 15 -19 32 -3 20
17 2 31 822 -622 l23 -19 -302 -380 c-301 -380 -301 -380 -325 -364 -26 17
-25 18 -63 -82 l-11 -30 5 30 c2 17 7 47 11 68 6 34 4 37 -18 37 l-23 0 -94
638 c-51 350 -95 647 -98 660 -4 18 0 25 16 29 26 7 26 4 1 56 -20 40 -10 33
24 -18z m3105 -211 c38 -32 49 -80 27 -122 -20 -39 -44 -52 -93 -52 -49 0 -80
22 -91 64 -14 48 -4 82 30 111 39 33 87 33 127 -1z m-1704 -849 c270 -213 494
-392 500 -396 6 -6 3 -20 -8 -38 -9 -16 -17 -39 -17 -51 l0 -23 -147 7 c-82 3
-428 9 -770 12 l-623 7 0 28 c0 16 -2 29 -3 29 -2 0 -30 -9 -62 -20 -84 -29
-86 -25 -14 21 58 38 62 42 45 55 -14 10 -16 17 -9 26 6 7 124 157 263 333
330 417 330 417 344 407 6 -5 232 -183 501 -397z m2042 350 c33 -37 38 -71 19
-112 -34 -72 -135 -78 -177 -9 -33 52 -11 122 46 147 34 15 88 2 112 -26z
m-4954 -86 c52 -27 71 -87 46 -142 -27 -59 -116 -68 -161 -18 -74 83 18 210
115 160z m1074 -354 c34 -39 31 -98 -6 -136 -63 -63 -171 -20 -171 68 0 43 21
80 54 94 37 16 99 3 123 -26z m3085 -63 c79 -39 149 -111 186 -190 34 -74 42
-211 19 -293 -84 -286 -466 -374 -680 -156 -126 130 -142 359 -36 513 30 43
94 101 139 124 58 31 107 40 206 37 90 -2 107 -6 166 -35z m1181 -322 c35 -40
36 -87 2 -128 -32 -38 -72 -48 -118 -28 -42 17 -57 41 -57 91 0 48 15 74 53
91 44 19 87 10 120 -26z m-3565 -44 c40 -14 72 -20 72 -15 0 19 81 -35 126
-84 188 -200 125 -529 -124 -645 -51 -24 -69 -27 -167 -27 -102 0 -115 2 -175
31 -329 156 -294 639 55 750 63 20 134 16 213 -10z m1125 8 l487 -7 0 -23 c0
-13 1 -24 3 -24 1 0 38 11 82 25 44 14 83 25 88 25 4 0 7 -17 7 -38 0 -57 26
-134 65 -192 19 -29 35 -54 35 -56 0 -2 -32 -20 -71 -39 -67 -34 -70 -37 -55
-54 9 -10 16 -22 16 -27 0 -5 -76 -85 -170 -179 l-169 -169 -24 22 -23 22 -37
-76 c-31 -62 -41 -74 -55 -68 -62 27 -142 2 -162 -52 -41 -106 61 -200 161
-148 30 15 31 15 95 -36 60 -47 66 -50 71 -31 3 12 10 21 17 21 6 0 120 -37
253 -82 232 -78 242 -83 237 -105 -6 -23 -5 -23 80 -23 l86 0 -12 -27 c-19
-45 -22 -46 -103 -29 -42 9 -79 16 -81 16 -2 0 -4 -13 -4 -28 l0 -28 -297 -33
c-164 -17 -308 -34 -320 -37 -19 -3 -23 0 -23 19 0 13 -3 26 -6 29 -3 4 -38
-9 -77 -27 l-72 -34 -12 29 c-27 62 -117 92 -169 56 -20 -14 -22 -11 -59 65
-22 43 -41 79 -44 79 -2 0 -12 -7 -21 -15 -14 -13 -41 11 -270 240 -243 243
-253 255 -237 273 16 17 14 20 -53 52 -39 19 -70 35 -70 36 0 1 15 25 34 53
53 78 71 142 70 246 -1 151 -64 268 -185 343 -32 21 -58 41 -59 46 0 5 118 6
283 2 155 -3 501 -9 770 -12z m-2437 -288 c56 -56 42 -131 -30 -161 -67 -28
-136 17 -136 89 0 99 97 141 166 72z m3262 -46 c51 -41 124 -71 188 -77 30 -3
54 -9 54 -12 0 -3 -9 -35 -20 -69 -26 -82 -25 -92 4 -92 l24 0 6 -167 c3 -93
8 -212 10 -265 l4 -98 -29 0 -29 0 30 -82 c16 -45 29 -82 27 -83 -1 0 -18 -8
-37 -16 l-35 -16 -70 53 c-68 52 -70 53 -79 31 -6 -12 -11 -23 -11 -25 -1 -1
-89 28 -196 64 -343 117 -309 102 -299 130 l10 24 -81 0 c-73 0 -80 2 -74 18
16 41 16 80 1 110 l-16 32 74 37 c72 35 75 38 59 56 -16 17 -9 26 155 190 157
157 174 171 192 159 18 -11 22 -7 55 58 19 38 38 70 41 70 3 0 22 -13 42 -30z
m-3134 -55 c80 -30 76 -30 76 -5 0 23 24 24 279 13 146 -6 152 -7 149 -27 -3
-25 5 -24 101 5 35 10 65 19 67 19 2 0 4 -15 4 -34 0 -55 38 -162 75 -211 l35
-45 -73 -36 c-39 -20 -74 -38 -76 -40 -2 -2 4 -13 14 -24 19 -21 17 -22 -104
-144 l-124 -124 -212 242 c-186 211 -211 243 -199 257 8 8 14 18 14 22 0 3
-28 22 -62 43 -35 20 -65 37 -66 39 -6 5 21 75 29 75 4 0 37 -11 73 -25z m-82
-144 c27 -61 29 -63 47 -47 18 17 27 8 230 -223 116 -132 211 -244 211 -248 0
-4 -55 -63 -122 -130 l-122 -123 -22 21 -23 21 -36 -73 c-45 -88 -42 -86 -57
-71 -15 15 -82 16 -109 2 -24 -13 -25 2 -4 80 20 73 19 80 -7 77 -21 -2 -22 2
-44 248 -12 138 -25 276 -29 308 -6 53 -5 57 15 57 27 0 25 16 -9 93 l-29 65
36 14 c25 10 38 11 41 4 2 -6 17 -40 33 -75z m923 -185 c49 -38 141 -76 183
-76 52 0 57 -11 33 -81 -27 -80 -26 -89 3 -89 24 0 24 -2 30 -112 3 -62 8
-192 11 -289 l5 -176 -29 -6 -30 -6 30 -76 c16 -42 29 -79 29 -83 0 -4 -16
-12 -36 -18 l-36 -12 -25 57 c-14 31 -29 67 -34 80 -9 23 -10 23 -29 6 -12
-11 -24 -15 -29 -9 -4 5 -104 119 -221 254 -117 135 -225 257 -239 273 l-25
27 124 125 c115 116 125 123 142 109 16 -15 20 -11 55 60 20 42 39 76 40 76 2
0 23 -15 48 -34z m611 -105 c2 -2 12 3 22 12 17 15 32 2 272 -238 249 -249
254 -254 236 -274 -18 -19 -16 -21 62 -60 l81 -41 -14 -27 c-18 -33 -19 -77
-4 -105 11 -20 9 -20 -68 -18 -98 3 -94 5 -83 -24 10 -29 45 -16 -319 -116
-123 -34 -230 -64 -237 -67 -8 -3 -16 6 -20 21 -3 14 -9 26 -13 26 -3 0 -33
-18 -66 -40 -67 -44 -75 -47 -75 -24 0 25 -56 74 -84 74 -14 0 -26 1 -26 3 0
2 11 41 25 87 14 46 25 85 25 87 0 2 -11 3 -25 3 -24 0 -25 2 -25 73 0 39 -3
170 -7 290 l-6 217 21 0 c27 0 27 -2 -3 83 -14 38 -24 71 -23 73 2 1 36 10 77
18 71 15 130 42 181 84 l25 21 34 -67 c18 -37 35 -69 37 -71z m1040 -56 c35
-22 48 -76 30 -118 -43 -104 -191 -74 -191 38 0 87 85 130 161 80z m-1801
-490 c223 -256 226 -260 206 -277 -21 -16 -20 -17 54 -59 56 -32 74 -47 69
-59 -4 -8 -9 -25 -11 -37 -3 -13 -7 -23 -9 -23 -2 0 -36 21 -74 47 -39 25 -72
44 -73 42 -2 -2 -7 -13 -13 -25 -9 -21 -14 -20 -319 60 l-310 81 3 28 3 28
-77 -7 c-71 -6 -77 -6 -71 10 17 43 17 66 3 101 -9 21 -15 39 -14 40 2 2 32
17 68 35 79 39 76 36 60 55 -12 14 3 33 111 141 l124 124 21 -23 c12 -12 124
-139 249 -282z m3866 279 c72 -37 70 -142 -3 -177 -31 -15 -44 -17 -72 -7 -50
16 -71 45 -71 95 0 82 74 127 146 89z m-1092 -218 c57 -30 68 -110 22 -157
-44 -44 -102 -43 -143 2 -46 49 -36 123 20 153 35 19 66 20 101 2z m-3422
-131 c33 -38 31 -100 -4 -137 -34 -35 -97 -39 -136 -8 -51 40 -44 134 12 166
38 21 101 11 128 -21z m2232 9 c38 -32 49 -80 27 -122 -20 -38 -44 -52 -91
-52 -50 0 -74 15 -91 57 -20 46 -10 86 28 118 39 33 87 33 127 -1z m-1088
-333 c64 -65 20 -171 -71 -171 -58 0 -100 42 -100 100 0 91 106 135 171 71z"/>
<path d="M3747 4454 c-18 -18 -5 -46 28 -60 47 -19 46 -38 -1 -31 -25 4 -34 2
-31 -6 2 -7 21 -12 43 -12 35 0 39 3 42 27 3 22 -2 28 -32 38 -47 15 -47 34 0
27 25 -4 34 -2 31 6 -4 13 -69 22 -80 11z"/>
<path d="M3852 4388 c3 -40 5 -43 36 -46 32 -3 32 -3 32 42 0 55 -17 62 -22 9
-4 -52 -28 -56 -28 -4 0 23 -5 41 -11 41 -6 0 -9 -17 -7 -42z"/>
<path d="M3940 4370 c0 -33 4 -60 10 -60 6 0 10 7 10 15 0 8 9 15 20 15 12 0
24 9 29 22 l8 22 12 -22 c13 -24 55 -30 67 -10 5 8 0 9 -14 6 -12 -4 -25 -2
-28 3 -3 5 7 9 21 9 23 0 26 4 23 28 -4 37 -51 44 -69 10 l-12 -22 -8 22 c-6
16 -17 22 -39 22 l-30 0 0 -60z m48 9 c-1 -13 -7 -23 -13 -22 -13 3 -18 30
-11 50 10 24 29 1 24 -28z m92 20 c0 -5 -7 -9 -15 -9 -15 0 -20 12 -9 23 8 8
24 -1 24 -14z"/>
<path d="M4120 4385 c0 -25 5 -45 10 -45 6 0 10 16 10 35 0 19 5 35 10 35 6 0
10 5 10 10 0 6 -9 10 -20 10 -17 0 -20 -7 -20 -45z"/>
<path d="M3770 4220 c0 -33 4 -60 10 -60 6 0 10 19 10 43 l0 42 26 -42 c37
-62 54 -57 54 17 0 33 -4 60 -10 60 -5 0 -10 -21 -10 -47 l-1 -48 -27 47 c-37
66 -52 62 -52 -12z"/>
<path d="M4020 4265 c0 -8 -9 -15 -20 -15 -10 0 -23 -7 -28 -16 -8 -15 -10
-15 -15 0 -4 9 -18 16 -32 16 -33 0 -52 -37 -36 -69 14 -25 56 -28 69 -5 8 15
10 15 15 0 4 -10 18 -16 37 -16 l30 0 0 60 c0 33 -4 60 -10 60 -5 0 -10 -7
-10 -15z m-82 -66 c-1 -13 -7 -23 -13 -22 -13 3 -18 30 -11 50 10 24 29 1 24
-28z m82 6 c0 -16 -6 -25 -15 -25 -9 0 -15 9 -15 25 0 16 6 25 15 25 9 0 15
-9 15 -25z"/>
<path d="M4060 4229 c-17 -31 2 -69 34 -69 14 0 28 5 32 12 5 8 0 9 -14 6 -12
-4 -25 -2 -28 3 -3 5 7 9 21 9 23 0 26 4 23 28 -4 36 -51 44 -68 11z m50 -10
c0 -5 -7 -9 -15 -9 -15 0 -20 12 -9 23 8 8 24 -1 24 -14z"/>
<path d="M1237 3854 c-18 -18 -5 -46 28 -60 47 -19 46 -38 -1 -31 -25 4 -34 2
-31 -6 2 -7 21 -12 43 -12 35 0 39 3 42 27 3 22 -2 28 -32 38 -47 15 -47 34 0
27 25 -4 34 -2 31 6 -4 13 -69 22 -80 11z"/>
<path d="M1342 3788 c3 -40 5 -43 36 -46 32 -3 32 -3 32 42 0 55 -17 62 -22 9
-4 -52 -28 -56 -28 -4 0 23 -5 41 -11 41 -6 0 -9 -17 -7 -42z"/>
<path d="M1430 3770 c0 -33 4 -60 10 -60 6 0 10 7 10 15 0 8 9 15 20 15 12 0
24 9 29 22 l8 22 12 -22 c13 -24 55 -30 67 -10 5 8 0 9 -14 6 -12 -4 -25 -2
-28 3 -3 5 7 9 21 9 23 0 26 4 23 28 -4 37 -51 44 -69 10 l-12 -22 -8 22 c-6
16 -17 22 -39 22 l-30 0 0 -60z m48 9 c-1 -13 -7 -23 -13 -22 -13 3 -18 30
-11 50 10 24 29 1 24 -28z m92 20 c0 -5 -7 -9 -15 -9 -15 0 -20 12 -9 23 8 8
24 -1 24 -14z"/>
<path d="M1610 3785 c0 -25 5 -45 10 -45 6 0 10 16 10 35 0 19 5 35 10 35 6 0
10 5 10 10 0 6 -9 10 -20 10 -17 0 -20 -7 -20 -45z"/>
<path d="M1250 3620 c0 -33 4 -60 10 -60 6 0 10 19 10 43 l0 42 26 -42 c37
-62 54 -57 54 17 0 33 -4 60 -10 60 -5 0 -10 -21 -10 -47 l-1 -48 -27 47 c-37
66 -52 62 -52 -12z"/>
<path d="M1500 3665 c0 -8 -9 -15 -20 -15 -10 0 -23 -7 -28 -16 -8 -15 -10
-15 -15 0 -4 9 -18 16 -32 16 -33 0 -52 -37 -36 -69 14 -25 56 -28 69 -5 8 15
10 15 15 0 4 -10 18 -16 37 -16 l30 0 0 60 c0 33 -4 60 -10 60 -5 0 -10 -7
-10 -15z m-82 -66 c-1 -13 -7 -23 -13 -22 -13 3 -18 30 -11 50 10 24 29 1 24
-28z m82 6 c0 -16 -6 -25 -15 -25 -9 0 -15 9 -15 25 0 16 6 25 15 25 9 0 15
-9 15 -25z"/>
<path d="M1540 3629 c-17 -31 2 -69 34 -69 14 0 28 5 32 12 5 8 0 9 -14 6 -12
-4 -25 -2 -28 3 -3 5 7 9 21 9 23 0 26 4 23 28 -4 36 -51 44 -68 11z m50 -10
c0 -5 -7 -9 -15 -9 -15 0 -20 12 -9 23 8 8 24 -1 24 -14z"/>
<path d="M4187 2154 c-18 -18 -5 -46 28 -60 47 -19 46 -38 -1 -31 -25 4 -34 2
-31 -6 2 -7 21 -12 43 -12 35 0 39 3 42 27 3 22 -2 28 -32 38 -47 15 -47 34 0
27 25 -4 34 -2 31 6 -4 13 -69 22 -80 11z"/>
<path d="M4292 2088 c3 -40 5 -43 36 -46 32 -3 32 -3 32 42 0 55 -17 62 -22 9
-4 -52 -28 -56 -28 -4 0 23 -5 41 -11 41 -6 0 -9 -17 -7 -42z"/>
<path d="M4380 2070 c0 -33 4 -60 10 -60 6 0 10 7 10 15 0 8 9 15 20 15 12 0
24 9 29 22 l8 22 12 -22 c13 -24 55 -30 67 -10 5 8 0 9 -14 6 -12 -4 -25 -2
-28 3 -3 5 7 9 21 9 23 0 26 4 23 28 -4 37 -51 44 -69 10 l-12 -22 -8 22 c-6
16 -17 22 -39 22 l-30 0 0 -60z m48 9 c-1 -13 -7 -23 -13 -22 -13 3 -18 30
-11 50 10 24 29 1 24 -28z m92 20 c0 -5 -7 -9 -15 -9 -15 0 -20 12 -9 23 8 8
24 -1 24 -14z"/>
<path d="M4560 2085 c0 -25 5 -45 10 -45 6 0 10 16 10 35 0 19 5 35 10 35 6 0
10 5 10 10 0 6 -9 10 -20 10 -17 0 -20 -7 -20 -45z"/>
<path d="M4200 1920 c0 -33 4 -60 10 -60 6 0 10 19 10 43 l0 42 26 -42 c37
-62 54 -57 54 17 0 33 -4 60 -10 60 -5 0 -10 -21 -10 -47 l-1 -48 -27 47 c-37
66 -52 62 -52 -12z"/>
<path d="M4450 1965 c0 -8 -9 -15 -20 -15 -10 0 -23 -7 -28 -16 -8 -15 -10
-15 -15 0 -4 9 -18 16 -32 16 -33 0 -52 -37 -36 -69 14 -25 56 -28 69 -5 8 15
10 15 15 0 4 -10 18 -16 37 -16 l30 0 0 60 c0 33 -4 60 -10 60 -5 0 -10 -7
-10 -15z m-82 -66 c-1 -13 -7 -23 -13 -22 -13 3 -18 30 -11 50 10 24 29 1 24
-28z m82 6 c0 -16 -6 -25 -15 -25 -9 0 -15 9 -15 25 0 16 6 25 15 25 9 0 15
-9 15 -25z"/>
<path d="M4490 1929 c-17 -31 2 -69 34 -69 14 0 28 5 32 12 5 8 0 9 -14 6 -12
-4 -25 -2 -28 3 -3 5 7 9 21 9 23 0 26 4 23 28 -4 36 -51 44 -68 11z m50 -10
c0 -5 -7 -9 -15 -9 -15 0 -20 12 -9 23 8 8 24 -1 24 -14z"/>
<path d="M1887 1774 c-18 -18 -5 -46 28 -60 47 -19 46 -38 -1 -31 -25 4 -34 2
-31 -6 2 -7 21 -12 43 -12 35 0 39 3 42 27 3 22 -2 28 -32 38 -47 15 -47 34 0
27 25 -4 34 -2 31 6 -4 13 -69 22 -80 11z"/>
<path d="M1992 1708 c3 -40 5 -43 36 -46 32 -3 32 -3 32 42 0 55 -17 62 -22 9
-4 -52 -28 -56 -28 -4 0 23 -5 41 -11 41 -6 0 -9 -17 -7 -42z"/>
<path d="M2080 1690 c0 -33 4 -60 10 -60 6 0 10 7 10 15 0 8 9 15 20 15 12 0
24 9 29 22 l8 22 12 -22 c13 -24 55 -30 67 -10 5 8 0 9 -14 6 -12 -4 -25 -2
-28 3 -3 5 7 9 21 9 23 0 26 4 23 28 -4 37 -51 44 -69 10 l-12 -22 -8 22 c-6
16 -17 22 -39 22 l-30 0 0 -60z m48 9 c-1 -13 -7 -23 -13 -22 -13 3 -18 30
-11 50 10 24 29 1 24 -28z m92 20 c0 -5 -7 -9 -15 -9 -15 0 -20 12 -9 23 8 8
24 -1 24 -14z"/>
<path d="M2260 1705 c0 -25 5 -45 10 -45 6 0 10 16 10 35 0 19 5 35 10 35 6 0
10 5 10 10 0 6 -9 10 -20 10 -17 0 -20 -7 -20 -45z"/>
<path d="M1910 1540 c0 -33 4 -60 10 -60 6 0 10 19 10 43 l0 42 26 -42 c37
-62 54 -57 54 17 0 33 -4 60 -10 60 -5 0 -10 -21 -10 -47 l-1 -48 -27 47 c-37
66 -52 62 -52 -12z"/>
<path d="M2160 1585 c0 -8 -9 -15 -20 -15 -10 0 -23 -7 -28 -16 -8 -15 -10
-15 -15 0 -4 9 -18 16 -32 16 -33 0 -52 -37 -36 -69 14 -25 56 -28 69 -5 8 15
10 15 15 0 4 -10 18 -16 37 -16 l30 0 0 60 c0 33 -4 60 -10 60 -5 0 -10 -7
-10 -15z m-82 -66 c-1 -13 -7 -23 -13 -22 -13 3 -18 30 -11 50 10 24 29 1 24
-28z m82 6 c0 -16 -6 -25 -15 -25 -9 0 -15 9 -15 25 0 16 6 25 15 25 9 0 15
-9 15 -25z"/>
<path d="M2200 1549 c-17 -31 2 -69 34 -69 14 0 28 5 32 12 5 8 0 9 -14 6 -12
-4 -25 -2 -28 3 -3 5 7 9 21 9 23 0 26 4 23 28 -4 36 -51 44 -68 11z m50 -10
c0 -5 -7 -9 -15 -9 -15 0 -20 12 -9 23 8 8 24 -1 24 -14z"/>
</g>
</svg>
