<?xml version="1.0" standalone="no"?>
<!DOCTYPE svg PUBLIC "-//W3C//DTD SVG 20010904//EN"
 "http://www.w3.org/TR/2001/REC-SVG-20010904/DTD/svg10.dtd">
<svg version="1.0" xmlns="http://www.w3.org/2000/svg"
 width="530.000000pt" height="230.000000pt" viewBox="0 0 530.000000 230.000000"
 preserveAspectRatio="xMidYMid meet">

<g transform="translate(0.000000,230.000000) scale(0.100000,-0.100000)"
fill="#000000" stroke="none">
<path d="M1890 2176 l0 -105 -76 -47 -76 -47 23 -18 c21 -15 21 -19 8 -38 -33
-49 -345 -430 -351 -430 -5 -1 -8 42 -8 94 l0 95 -682 -2 -683 -3 -3 -212 -2
-213 684 0 685 0 3 97 3 97 182 -224 c163 -201 181 -226 168 -240 -8 -9 -15
-19 -15 -22 0 -4 31 -26 70 -49 l69 -43 3 -111 3 -110 685 0 685 0 3 98 3 98
244 -232 c135 -127 245 -235 245 -239 0 -5 -5 -12 -10 -15 -22 -14 -6 -27 70
-62 l80 -36 0 -108 0 -109 685 0 685 0 0 215 0 215 -685 0 -684 0 -3 -101 -3
-102 -40 76 c-39 75 -40 76 -60 57 -20 -18 -24 -14 -272 221 l-252 238 256
241 c230 216 258 239 272 226 15 -13 20 -8 55 55 21 39 35 73 32 77 -6 6 -146
-58 -146 -67 0 -2 7 -13 16 -22 18 -20 48 10 -331 -346 l-150 -142 -3 95 -3
94 -689 0 -689 0 -3 -87 -3 -88 -24 65 c-30 80 -27 77 -49 57 -18 -16 -27 -6
-198 204 -98 121 -180 225 -182 230 -2 5 57 9 142 9 l146 0 0 -25 c0 -14 1
-25 3 -25 2 0 37 11 77 25 40 14 77 25 82 25 4 0 8 -47 8 -105 l0 -105 690 0
690 0 -2 213 -3 212 -685 0 -685 0 -3 -102 -3 -102 -71 25 c-89 30 -98 30 -98
-1 l0 -25 -145 0 c-80 0 -145 2 -145 5 0 9 363 450 369 448 3 -1 13 -4 21 -7
12 -5 22 10 40 60 l25 66 5 -93 5 -94 685 0 685 0 3 213 2 212 -690 0 -690 0
0 -104z m1360 -106 l0 -200 -670 0 -670 0 0 200 0 200 670 0 670 0 0 -200z
m-1850 -605 l0 -205 -675 0 -675 0 0 198 c0 109 3 202 7 205 3 4 307 7 675 7
l668 0 0 -205z m1850 -5 l0 -200 -670 0 -670 0 0 200 0 200 670 0 670 0 0
-200z m0 -600 l0 -200 -670 0 -670 0 0 200 0 200 670 0 670 0 0 -200z m2010
-610 l0 -200 -675 0 -675 0 0 200 0 200 675 0 675 0 0 -200z"/>
<path d="M2192 2128 c-7 -7 -12 -28 -12 -48 0 -43 14 -60 51 -60 27 0 57 25
45 37 -4 4 -11 2 -15 -6 -5 -7 -19 -11 -32 -9 -20 2 -24 9 -24 38 0 34 1 35
38 34 30 -1 35 1 26 12 -14 17 -61 18 -77 2z"/>
<path d="M2660 2080 c0 -33 4 -60 10 -60 6 0 10 27 10 60 0 33 -4 60 -10 60
-6 0 -10 -27 -10 -60z"/>
<path d="M2700 2129 c0 -5 5 -7 10 -4 6 3 10 8 10 11 0 2 -4 4 -10 4 -5 0 -10
-5 -10 -11z"/>
<path d="M2950 2125 c0 -8 -9 -15 -20 -15 -28 0 -45 -36 -31 -66 8 -18 19 -24
41 -24 l30 0 0 60 c0 33 -4 60 -10 60 -5 0 -10 -7 -10 -15z m0 -60 c0 -32 -16
-40 -30 -15 -9 16 -8 25 0 36 16 18 30 9 30 -21z"/>
<path d="M2468 2120 c-2 -6 -2 -31 0 -55 3 -38 7 -45 26 -45 15 0 17 3 8 9 -8
5 -13 23 -12 42 1 19 2 40 1 47 -1 14 -18 16 -23 2z"/>
<path d="M2300 2089 c-17 -31 2 -69 34 -69 14 0 28 5 32 11 4 7 -2 9 -16 7
-13 -2 -25 3 -27 10 -3 7 5 12 22 12 22 0 26 4 23 23 -4 32 -52 36 -68 6z m50
-10 c0 -5 -7 -9 -15 -9 -15 0 -20 12 -9 23 8 8 24 -1 24 -14z"/>
<path d="M2380 2066 c0 -55 17 -62 22 -9 4 52 28 56 28 4 0 -23 5 -41 11 -41
6 0 9 17 7 43 -3 39 -5 42 -35 45 -33 3 -33 3 -33 -42z"/>
<path d="M2520 2065 c0 -25 5 -45 10 -45 6 0 10 16 10 35 0 19 5 35 10 35 6 0
10 5 10 10 0 6 -9 10 -20 10 -17 0 -20 -7 -20 -45z"/>
<path d="M2574 2099 c-5 -9 -1 -11 14 -7 12 4 25 2 28 -3 3 -5 -4 -9 -14 -9
-25 0 -44 -23 -36 -43 4 -11 18 -16 43 -15 l37 0 -5 42 c-5 35 -10 41 -33 44
-14 2 -29 -2 -34 -9z m46 -38 c0 -13 -26 -32 -33 -24 -8 7 11 33 24 33 5 0 9
-4 9 -9z"/>
<path d="M2700 2067 l0 -44 42 -1 c23 -1 45 3 49 10 10 15 0 38 -16 38 -16 0
-30 18 -21 27 3 3 12 0 21 -7 12 -10 15 -10 15 4 0 11 -9 16 -30 16 -40 0 -42
-36 -3 -51 19 -7 23 -13 15 -21 -8 -8 -15 -8 -25 0 -8 7 -17 9 -20 5 -4 -3 -7
10 -7 30 0 21 -4 37 -10 37 -5 0 -10 -20 -10 -43z"/>
<path d="M2810 2089 c-17 -31 2 -69 34 -69 14 0 28 5 32 11 4 7 -2 9 -16 7
-13 -2 -25 3 -27 10 -3 7 5 12 22 12 22 0 26 4 23 23 -4 32 -52 36 -68 6z m50
-10 c0 -5 -7 -9 -15 -9 -15 0 -20 12 -9 23 8 8 24 -1 24 -14z"/>
<path d="M560 1560 c0 -33 4 -60 10 -60 6 0 10 11 10 24 0 21 6 25 32 28 61 6
44 68 -18 68 l-34 0 0 -60z m59 41 c19 -12 6 -41 -19 -41 -15 0 -20 7 -20 25
0 26 14 31 39 16z"/>
<path d="M675 1610 c-11 -17 3 -24 20 -10 12 10 16 9 21 -4 4 -11 -3 -27 -20
-45 -36 -38 -33 -51 12 -50 30 2 32 3 10 6 -35 5 -35 13 -2 42 33 29 30 65 -8
69 -14 2 -29 -2 -33 -8z"/>
<path d="M760 1560 c0 -33 4 -60 10 -60 6 0 10 11 10 24 0 21 6 25 32 28 61 6
44 68 -18 68 l-34 0 0 -60z m59 41 c19 -12 6 -41 -19 -41 -15 0 -20 7 -20 25
0 26 14 31 39 16z"/>
<path d="M311 1384 c-24 -64 -24 -64 -12 -64 5 0 13 9 16 20 4 12 15 20 30 20
14 0 25 -7 28 -20 3 -11 10 -20 15 -20 6 0 1 27 -11 60 -12 33 -27 60 -33 60
-6 0 -21 -25 -33 -56z m48 -6 c1 -5 -6 -8 -14 -8 -16 0 -19 9 -8 36 6 16 7 16
14 -2 4 -10 8 -22 8 -26z"/>
<path d="M540 1380 c0 -66 17 -83 22 -22 4 46 22 45 26 -3 2 -19 8 -35 13 -35
6 0 9 19 7 43 -2 35 -7 43 -25 45 -13 2 -23 10 -23 18 0 8 -4 14 -10 14 -6 0
-10 -27 -10 -60z"/>
<path d="M630 1429 c0 -5 5 -7 10 -4 6 3 10 8 10 11 0 2 -4 4 -10 4 -5 0 -10
-5 -10 -11z"/>
<path d="M660 1420 c0 -5 -7 -10 -15 -10 -11 0 -15 -12 -15 -45 0 -57 18 -59
23 -2 l4 42 1 -42 c2 -37 5 -43 25 -43 16 0 18 3 9 9 -8 5 -13 23 -12 42 1 19
2 40 1 47 -1 14 -21 17 -21 2z"/>
<path d="M878 1420 c-2 -6 -2 -30 0 -54 l4 -44 54 -1 54 0 0 44 c0 54 -17 60
-22 8 -4 -52 -28 -56 -28 -4 0 23 -4 41 -10 41 -5 0 -10 -18 -10 -40 0 -22 -5
-40 -11 -40 -6 0 -10 16 -9 38 1 20 2 43 1 50 -1 14 -18 16 -23 2z"/>
<path d="M410 1365 c0 -25 5 -45 10 -45 6 0 10 15 10 33 0 18 5 38 12 45 9 9
7 12 -10 12 -19 0 -22 -5 -22 -45z"/>
<path d="M461 1388 c-18 -48 28 -90 59 -53 8 9 8 15 2 15 -6 0 -14 -5 -17 -10
-8 -13 -35 6 -35 25 0 19 27 38 35 25 3 -5 11 -10 17 -10 7 0 6 6 -2 15 -18
22 -49 18 -59 -7z"/>
<path d="M711 1388 c-5 -13 -5 -32 -1 -43 8 -23 47 -32 63 -16 9 9 5 11 -12 9
-13 -2 -26 3 -28 10 -3 7 5 12 22 12 22 0 26 4 23 23 -5 33 -55 37 -67 5z m49
-9 c0 -5 -10 -9 -21 -9 -18 0 -19 2 -9 15 12 15 30 12 30 -6z"/>
<path d="M801 1388 c-18 -48 28 -90 59 -53 8 9 8 15 2 15 -6 0 -14 -5 -17 -10
-8 -13 -35 6 -35 25 0 19 27 38 35 25 3 -5 11 -10 17 -10 7 0 6 6 -2 15 -18
22 -49 18 -59 -7z"/>
<path d="M1010 1365 c0 -25 5 -45 10 -45 6 0 10 15 10 33 0 18 5 38 12 45 9 9
7 12 -10 12 -19 0 -22 -5 -22 -45z"/>
<path d="M1071 1388 c-5 -13 -5 -32 -1 -43 8 -23 47 -32 63 -16 9 9 5 11 -12
9 -13 -2 -26 3 -28 10 -3 7 5 12 22 12 22 0 26 4 23 23 -5 33 -55 37 -67 5z
m49 -9 c0 -5 -10 -9 -21 -9 -18 0 -19 2 -9 15 12 15 30 12 30 -6z"/>
<path d="M2350 1470 c0 -33 4 -60 10 -60 6 0 10 11 10 25 0 20 5 25 25 25 20
0 25 -5 25 -25 0 -16 6 -25 15 -25 12 0 15 13 15 60 0 47 -3 60 -15 60 -9 0
-15 -9 -15 -25 0 -20 -5 -25 -25 -25 -20 0 -25 5 -25 25 0 14 -4 25 -10 25 -6
0 -10 -27 -10 -60z"/>
<path d="M2550 1470 l0 -60 30 0 c22 0 33 6 40 23 l9 22 0 -22 c1 -38 21 -26
21 12 0 19 5 35 10 35 6 0 10 5 10 10 0 6 -9 10 -20 10 -14 0 -20 -7 -21 -22
l0 -23 -9 23 c-6 12 -18 22 -30 22 -11 0 -20 7 -20 15 0 8 -4 15 -10 15 -6 0
-10 -27 -10 -60z m48 -21 c-1 -13 -7 -23 -13 -22 -13 3 -18 30 -11 50 10 24
29 1 24 -28z"/>
<path d="M2690 1519 c0 -5 5 -7 10 -4 6 3 10 8 10 11 0 2 -4 4 -10 4 -5 0 -10
-5 -10 -11z"/>
<path d="M2770 1515 c0 -8 -9 -15 -20 -15 -10 0 -24 -8 -29 -17 -10 -17 -10
-17 -11 0 0 9 -4 17 -10 17 -5 0 -10 -20 -10 -45 0 -25 5 -45 10 -45 6 0 10 8
10 18 1 16 1 16 11 0 6 -11 22 -18 39 -18 30 0 30 0 30 60 0 33 -4 60 -10 60
-5 0 -10 -7 -10 -15z m0 -60 c0 -32 -16 -40 -30 -15 -9 16 -8 25 0 36 16 18
30 9 30 -21z"/>
<path d="M2465 1483 c27 -67 28 -74 9 -89 -18 -14 -18 -15 1 -12 27 4 81 118
56 118 -6 0 -13 -11 -17 -25 -3 -14 -10 -25 -14 -25 -4 0 -11 11 -14 25 -4 14
-11 25 -17 25 -7 0 -8 -7 -4 -17z"/>
<path d="M2090 870 l0 -60 33 0 c40 0 67 25 67 63 0 35 -25 57 -66 57 l-34 0
0 -60z m76 25 c4 -8 3 -26 0 -40 -5 -18 -13 -25 -31 -25 -22 0 -25 4 -25 40 0
36 2 40 25 40 14 0 28 -7 31 -15z"/>
<path d="M2740 870 c0 -33 4 -60 10 -60 6 0 10 27 10 60 0 33 -4 60 -10 60 -6
0 -10 -27 -10 -60z"/>
<path d="M2780 919 c0 -5 5 -7 10 -4 6 3 10 8 10 11 0 2 -4 4 -10 4 -5 0 -10
-5 -10 -11z"/>
<path d="M3030 915 c0 -8 -9 -15 -20 -15 -28 0 -45 -36 -31 -66 8 -18 19 -24
41 -24 l30 0 0 60 c0 33 -4 60 -10 60 -5 0 -10 -7 -10 -15z m0 -60 c0 -32 -16
-40 -30 -15 -9 16 -8 25 0 36 16 18 30 9 30 -21z"/>
<path d="M2548 910 c-2 -6 -2 -31 0 -55 3 -38 7 -45 26 -45 15 0 17 3 8 9 -8
5 -13 23 -12 42 1 19 2 40 1 47 -1 14 -18 16 -23 2z"/>
<path d="M2209 879 c-16 -31 3 -69 35 -69 14 0 28 5 32 11 4 7 -2 9 -16 7 -13
-2 -25 3 -27 10 -8 21 45 14 57 -8 13 -24 55 -27 64 -5 6 18 -10 20 -20 3 -5
-8 -11 -6 -20 7 -17 22 1 64 19 46 16 -16 27 -14 21 4 -8 20 -51 19 -62 -1 -8
-15 -10 -15 -15 0 -9 24 -54 20 -68 -5z m51 -10 c0 -5 -7 -9 -15 -9 -15 0 -20
12 -9 23 8 8 24 -1 24 -14z"/>
<path d="M2370 879 c-17 -31 2 -69 34 -69 14 0 28 5 32 11 4 7 -2 9 -16 7 -13
-2 -25 3 -27 10 -3 7 5 12 22 12 22 0 26 4 23 23 -4 32 -52 36 -68 6z m50 -10
c0 -5 -7 -9 -15 -9 -15 0 -20 12 -9 23 8 8 24 -1 24 -14z"/>
<path d="M2460 856 c0 -55 17 -62 22 -9 4 52 28 56 28 4 0 -23 5 -41 11 -41 6
0 9 17 7 43 -3 39 -5 42 -35 45 -33 3 -33 3 -33 -42z"/>
<path d="M2600 855 c0 -25 5 -45 10 -45 6 0 10 16 10 35 0 19 5 35 10 35 6 0
10 5 10 10 0 6 -9 10 -20 10 -17 0 -20 -7 -20 -45z"/>
<path d="M2654 889 c-5 -9 -1 -11 14 -7 12 4 25 2 28 -3 3 -5 -4 -9 -14 -9
-25 0 -44 -23 -36 -43 4 -11 18 -16 43 -15 l37 0 -5 42 c-5 35 -10 41 -33 44
-14 2 -29 -2 -34 -9z m46 -38 c0 -13 -26 -32 -33 -24 -8 7 11 33 24 33 5 0 9
-4 9 -9z"/>
<path d="M2780 857 l0 -44 42 -1 c23 -1 45 3 49 10 10 15 0 38 -16 38 -16 0
-30 18 -21 27 3 3 12 0 21 -7 12 -10 15 -10 15 4 0 11 -9 16 -30 16 -40 0 -42
-36 -3 -51 19 -7 23 -13 15 -21 -8 -8 -15 -8 -25 0 -8 7 -17 9 -20 5 -4 -3 -7
10 -7 30 0 21 -4 37 -10 37 -5 0 -10 -20 -10 -43z"/>
<path d="M2890 879 c-17 -31 2 -69 34 -69 14 0 28 5 32 11 4 7 -2 9 -16 7 -13
-2 -25 3 -27 10 -3 7 5 12 22 12 22 0 26 4 23 23 -4 32 -52 36 -68 6z m50 -10
c0 -5 -7 -9 -15 -9 -15 0 -20 12 -9 23 8 8 24 -1 24 -14z"/>
<path d="M4130 272 c0 -55 12 -72 52 -72 33 0 48 24 48 79 0 30 -4 41 -15 41
-11 0 -15 -12 -15 -51 0 -47 -2 -50 -22 -47 -20 3 -23 10 -26 51 -4 62 -22 61
-22 -1z"/>
<path d="M5010 305 c0 -8 -9 -15 -20 -15 -28 0 -45 -36 -31 -66 8 -18 19 -24
41 -24 l30 0 0 60 c0 33 -4 60 -10 60 -5 0 -10 -7 -10 -15z m0 -60 c0 -16 -6
-25 -15 -25 -9 0 -15 9 -15 25 0 16 6 25 15 25 9 0 15 -9 15 -25z"/>
<path d="M4408 300 c-2 -6 -2 -31 0 -55 3 -38 7 -45 25 -45 16 0 18 3 9 12
-15 15 -16 68 -1 68 6 0 4 7 -5 15 -17 18 -23 19 -28 5z"/>
<path d="M4678 300 c-2 -6 -2 -31 0 -55 3 -38 7 -45 25 -45 16 0 18 3 9 12
-15 15 -16 68 -1 68 6 0 4 7 -5 15 -17 18 -23 19 -28 5z"/>
<path d="M4250 245 c0 -54 17 -60 22 -8 4 51 28 56 28 5 0 -39 0 -39 42 -40
38 -2 57 8 58 30 0 4 -12 15 -27 23 -24 14 -25 16 -5 12 14 -4 22 0 22 9 0 9
-11 14 -30 14 -17 0 -30 -5 -30 -12 0 -9 -3 -9 -12 0 -7 7 -25 12 -40 12 -27
0 -28 -2 -28 -45z m124 -27 c-3 -5 -13 -4 -23 2 -10 5 -21 6 -25 3 -3 -3 -6 3
-6 15 0 20 1 21 29 4 16 -9 27 -20 25 -24z"/>
<path d="M4460 245 c0 -25 5 -45 10 -45 6 0 10 16 10 35 0 19 5 35 10 35 6 0
10 5 10 10 0 6 -9 10 -20 10 -17 0 -20 -7 -20 -45z"/>
<path d="M4512 248 c3 -40 5 -43 36 -46 32 -3 32 -3 32 42 0 55 -17 62 -22 9
-4 -52 -28 -56 -28 -4 0 23 -5 41 -11 41 -6 0 -9 -17 -7 -42z"/>
<path d="M4599 269 c-16 -31 3 -69 35 -69 13 0 26 7 30 15 4 12 0 14 -19 9
-22 -5 -25 -3 -25 21 0 24 3 26 25 21 19 -5 23 -3 19 9 -9 23 -51 18 -65 -6z"/>
<path d="M4732 248 c3 -40 5 -43 36 -46 32 -3 32 -3 32 42 0 55 -17 62 -22 9
-4 -52 -28 -56 -28 -4 0 23 -5 41 -11 41 -6 0 -9 -17 -7 -42z"/>
<path d="M4820 245 c0 -25 5 -45 10 -45 6 0 10 16 10 35 0 19 5 35 10 35 6 0
10 5 10 10 0 6 -9 10 -20 10 -17 0 -20 -7 -20 -45z"/>
<path d="M4870 269 c-17 -31 2 -69 34 -69 14 0 28 5 32 12 5 8 0 9 -14 6 -12
-4 -25 -2 -28 3 -3 5 7 9 21 9 23 0 26 4 23 28 -4 36 -51 44 -68 11z m50 -10
c0 -5 -7 -9 -15 -9 -15 0 -20 12 -9 23 8 8 24 -1 24 -14z"/>
<path d="M3898 1568 c-2 -62 -2 -159 0 -215 l3 -103 684 0 685 0 0 215 0 215
-684 0 -685 0 -3 -112z m1362 -108 l0 -200 -675 0 -675 0 0 200 0 200 675 0
675 0 0 -200z"/>
<path d="M4227 1524 c-18 -18 -5 -46 28 -60 47 -19 46 -38 -1 -31 -25 4 -34 2
-31 -6 2 -7 21 -12 43 -12 35 0 39 3 42 27 3 22 -2 28 -32 38 -47 15 -47 34 0
27 25 -4 34 -2 31 6 -4 13 -69 22 -80 11z"/>
<path d="M4920 1515 c0 -8 -9 -15 -20 -15 -28 0 -45 -36 -31 -66 8 -18 19 -24
41 -24 l30 0 0 60 c0 33 -4 60 -10 60 -5 0 -10 -7 -10 -15z m0 -60 c0 -16 -6
-25 -15 -25 -9 0 -15 9 -15 25 0 16 6 25 15 25 9 0 15 -9 15 -25z"/>
<path d="M4328 1510 c-2 -6 -2 -31 0 -55 4 -42 6 -45 33 -45 26 0 29 3 29 35
0 19 5 35 10 35 6 0 10 5 10 10 0 6 -13 10 -30 10 -16 0 -30 5 -30 10 0 13
-17 13 -22 0z m42 -56 c0 -21 -4 -33 -10 -29 -5 3 -10 19 -10 36 0 16 5 29 10
29 6 0 10 -16 10 -36z"/>
<path d="M4588 1510 c-2 -6 -2 -31 0 -55 3 -38 7 -45 25 -45 16 0 18 3 9 12
-15 15 -16 68 -1 68 6 0 4 7 -5 15 -17 18 -23 19 -28 5z"/>
<path d="M4422 1458 c3 -40 5 -43 36 -46 32 -3 32 -3 32 42 0 55 -17 62 -22 9
-4 -52 -28 -56 -28 -4 0 23 -5 41 -11 41 -6 0 -9 -17 -7 -42z"/>
<path d="M4509 1479 c-16 -31 3 -69 35 -69 13 0 26 7 30 15 4 12 0 14 -19 9
-22 -5 -25 -3 -25 21 0 24 3 26 25 21 19 -5 23 -3 19 9 -9 23 -51 18 -65 -6z"/>
<path d="M4642 1458 c3 -40 5 -43 36 -46 32 -3 32 -3 32 42 0 55 -17 62 -22 9
-4 -52 -28 -56 -28 -4 0 23 -5 41 -11 41 -6 0 -9 -17 -7 -42z"/>
<path d="M4730 1455 c0 -25 5 -45 10 -45 6 0 10 16 10 35 0 19 5 35 10 35 6 0
10 5 10 10 0 6 -9 10 -20 10 -17 0 -20 -7 -20 -45z"/>
<path d="M4780 1479 c-17 -31 2 -69 34 -69 14 0 28 5 32 12 5 8 0 9 -14 6 -12
-4 -25 -2 -28 3 -3 5 7 9 21 9 23 0 26 4 23 28 -4 36 -51 44 -68 11z m50 -10
c0 -5 -7 -9 -15 -9 -15 0 -20 12 -9 23 8 8 24 -1 24 -14z"/>
</g>
</svg>
